/* XPM */
static char *festcat_logo[] = {
/* columns rows colors chars-per-pixel */
"32 27 256 2 ",
"   c #2F1D16",
".  c #301F19",
"X  c #3E241A",
"o  c #3E2820",
"O  c #4E1F19",
"+  c #451E18",
"@  c #561815",
"#  c #5B1718",
"$  c #531E19",
"%  c #5B1C1A",
"&  c #631E1D",
"*  c #40261C",
"=  c #42281E",
"-  c #53221D",
";  c #6E1F20",
":  c #701F21",
">  c #422A21",
",  c #4A2D24",
"<  c #5A2627",
"1  c #4F3027",
"2  c #4D362D",
"3  c #513128",
"4  c #50382F",
"5  c #4F3B36",
"6  c #593C34",
"7  c #563F39",
"8  c #672727",
"9  c #6C2425",
"0  c #6F2628",
"q  c #622D27",
"w  c #732C2D",
"e  c #712223",
"r  c #70312D",
"t  c #6D3233",
"y  c #6B3E35",
"u  c #653C3A",
"i  c #753433",
"p  c #7B3636",
"a  c #773837",
"s  c #7E3738",
"d  c #7B3C3C",
"f  c #773C39",
"g  c #4F413A",
"h  c #684033",
"j  c #61413A",
"k  c #76443A",
"l  c #694947",
"z  c #734444",
"x  c #7D4343",
"c  c #7B4E4E",
"v  c #704E4C",
"b  c #625356",
"n  c #775857",
"m  c #795B5A",
"M  c #755959",
"N  c #77605A",
"B  c #79645D",
"V  c #786764",
"C  c #796A64",
"Z  c #78696F",
"A  c #726E73",
"S  c #853938",
"D  c #96413F",
"F  c #814444",
"G  c #884241",
"H  c #864B47",
"J  c #8B4E45",
"K  c #824949",
"L  c #8C4E4D",
"P  c #8D514B",
"I  c #8A5A42",
"U  c #835454",
"Y  c #8D5554",
"T  c #835B59",
"R  c #8A5C5B",
"E  c #925556",
"W  c #AD5751",
"Q  c #A65951",
"!  c #B75951",
"~  c #BD5D58",
"^  c #986549",
"/  c #976157",
"(  c #9C6C52",
")  c #B37E4F",
"_  c #AD6C5A",
"`  c #A26E51",
"'  c #B66756",
"]  c #B06059",
"[  c #AF7F54",
"{  c #AF735C",
"}  c #B27356",
"|  c #8B6663",
" . c #876F6C",
".. c #896964",
"X. c #916060",
"o. c #9A6864",
"O. c #8F7170",
"+. c #8C7974",
"@. c #827171",
"#. c #997776",
"$. c #997F76",
"%. c #A56C6D",
"&. c #A16664",
"*. c #A07A61",
"=. c #BE7C6B",
"-. c #AF7873",
";. c #A07C79",
":. c #A97C7A",
">. c #B57A7B",
",. c #CE594F",
"<. c #CC5B55",
"1. c #CA5752",
"2. c #D25B55",
"3. c #D25E58",
"4. c #C5685A",
"5. c #D26455",
"6. c #D26954",
"7. c #D2625B",
"8. c #D26C5C",
"9. c #C87E56",
"0. c #C0725C",
"q. c #C67352",
"w. c #D3745C",
"e. c #D37C5A",
"r. c #D27554",
"t. c #C26965",
"y. c #D26761",
"u. c #D26D62",
"i. c #CC7760",
"p. c #D27D60",
"a. c #D67669",
"s. c #D8776F",
"d. c #D47665",
"f. c #DD7C78",
"g. c #E07D7B",
"h. c #8A8074",
"j. c #9D827D",
"k. c #A68076",
"l. c #AB8779",
"z. c #B48C7B",
"x. c #CF865D",
"c. c #C3855C",
"v. c #D28556",
"b. c #D28C54",
"n. c #D2835B",
"m. c #D28B5A",
"M. c #D29355",
"N. c #D29358",
"B. c #D28860",
"V. c #DB9B73",
"C. c #DCA56E",
"Z. c #887A80",
"A. c #8A8685",
"S. c #9D8281",
"D. c #9D9084",
"F. c #9C9394",
"G. c #A78989",
"H. c #A48B86",
"J. c #B38786",
"K. c #AF9086",
"L. c #AA9887",
"P. c #AF9F8C",
"I. c #A59486",
"U. c #B69086",
"Y. c #B19E88",
"T. c #B8988F",
"R. c #BC9086",
"E. c #AB9897",
"W. c #A69A9D",
"Q. c #BB9F9D",
"!. c #B59896",
"~. c #ACA097",
"^. c #B8A09F",
"/. c #B4A694",
"(. c #B7B29F",
"). c #A19CA2",
"_. c #A1A6AD",
"`. c #B7A1A1",
"'. c #B9A0A0",
"]. c #B5A9A0",
"[. c #B7B3A8",
"{. c #B4ABB0",
"}. c #AFB1B8",
"|. c #BBB9B6",
" X c #C0968A",
".X c #C0AD9D",
"XX c #CCA8A7",
"oX c #CBA8A9",
"OX c #D2ACA8",
"+X c #C8B1AF",
"@X c #C3BAA9",
"#X c #D8BDAB",
"$X c #CCBABD",
"%X c #D7BAB8",
"&X c #DDBEBD",
"*X c #D2B7B3",
"=X c #E4BBBA",
"-X c #C7C2B1",
";X c #CEC3BC",
":X c #DCCDBC",
">X c #D2D1B8",
",X c #E1C3B9",
"<X c #E1D4BB",
"1X c #B4BAC4",
"2X c #BAC0C9",
"3X c #C7C7C4",
"4X c #C7C9CD",
"5X c #DECCCF",
"6X c #D5C8C7",
"7X c #CCD0C8",
"8X c #DDDCC2",
"9X c #CCCED7",
"0X c #C4CDD8",
"qX c #D3CDD4",
"wX c #D6D4D6",
"eX c #E5CACA",
"rX c #E8CAC8",
"tX c #E3C7C3",
"yX c #F2CFCF",
"uX c #E9D4CA",
"iX c #EEDFD2",
"pX c #E6D5D7",
"aX c #F5D4D4",
"sX c #F4D9D7",
"dX c #F3D7D8",
"fX c #F6DBDA",
"gX c #FEDCDB",
"hX c #ECE6CF",
"jX c #EFEACC",
"kX c #E6E3C9",
"lX c #E9E8D6",
"zX c #E6E2DD",
"xX c #EDE0DD",
"cX c #EDEBDF",
"vX c #E8E6D2",
"bX c #F4EFD1",
"nX c #F5E1DF",
"mX c #FDE3DD",
"MX c #FDEADB",
"NX c #FAF9D7",
"BX c #F4F4DD",
"VX c #FFF4DC",
"CX c #FFFDDD",
"ZX c #EEE5E4",
"AX c #F5E2E1",
"SX c #FEE3E2",
"DX c #FEEAE4",
"FX c #FFECEA",
"GX c #FEFEE4",
"HX c #FFF3EB",
"JX c #FEFCEC",
"KX c #F6F4EB",
"LX c #FFF5F2",
"PX c #FFFAF1",
"IX c #FFFEF8",
"UX c None",
/* pixels */
"UXUXUXUXUXUXUXUXUXUXUXUXUXUXUXUXUXUXUXUXUXUXUXUXUXUXUXUXUXUXUXUX",
"UXUXUXUXUXUXUXUX: & e S d p L F E %.>.%./ !.T.l.H UXUXUXUXUXUXUX",
"UXUXUXUXUXUXUXG  XU.k.<X:X*XsXrXyXgXgXsXxXIXCXNX,XY 9 UXUXUXUXUX",
"UXUXUXUXUXUXp OXGXbXjXGXJXDXPXFXgXgXgXDXJXJXCXmXgXXXJ.s UXUXUXUX",
"UXUXUXUXUXUXUX#XCXCXCXJXIXLXFXgXgXgXDXGXGXCXMXgXgXdXFXXXd UXUXUX",
"UXUXUXUXUXUXUXz.CXCXJXHXFXSXgXgXgXSXPXIXGXMXgXgXgXfXDXDXR.UXUXUX",
"UXUXUXUXUXUXUX/ bXCXlXDXSX&X&XrX`.W.|.-X[.,XgXaX^.V !.:XP.i UXUX",
"UXUXUXUXUXUXUXp L.+.g V B 2 2 5 X   X o = g  .l > . = 2 o $ UXUX",
"UXUXUXUXUXUXUXUX+ X X X X X X X * * * * X X X X * * * * * * & UX",
"UXUXUXUXUXUXUXUX$ X X X = X * * * * * , , 1 , = * * * * * * % UX",
"UXUXUXUXUXUXUXUX- = X X = * X X , y I ` _ ] Q L u , * * X X % UX",
"UXUXUXUXUXUXUXUX- X X > X X > y Q 9.N.n.u.7.3.i._ P J J k 1 $ UX",
"UXUXUXUXUXUXUX& X X * * * * k 4.e.M.m.8.3.2.8.x.4.1.u.a.m.^ - UX",
"UXUXUXUXUXUXUX- X X X X * y 4.e.M.N.p.8.2.8.m.v.5.7.a.V.C.' q UX",
"UXUXUXUXUXUX$ X = 6 V N 6 W w.b.N.w.8.3.7.B.v.6.g.s.9.b.v.<.i UX",
"UXUXUXUXUX@ j k..XtXFXfX-.7.e.M.B.u.3.2.w.v.6.7.f.w.b.v.5.5.D UX",
"UXUXUXUX8 ..%XSXnXZXpX5Xi.n.N.v.u.y.3.w.v.r.2.5.w.v.M.6.2.7.D UX",
"UXUXUX`.j.E.dXwX9X0X0X{.=.m.N.8.7.3.8.c.q.2.<.' ^ c.q.<.t.&.S UX",
"UXUX!.SXgX+X).1X_._.W.#.} [ { ~ <.! *.P.K.Y o.(.>XD.J.=X6XZ.UXUX",
"UXt *XgXgXsXF.{.8X>X~.N /.:XrXOX:.I.kXMXgX$X;XCXGX4X5XZX1Xu UXUX",
"UXz rXgXgXnXcXJXGXCXMX6XDXFXgXSXzXBXVXmXgXwXlXCXDX9X}.1XZ # UXUX",
"w z Q.SXnX3XGXGXCXCXiXuXgXgXSXHX7XhXMXgXDXwXvXVXSXqXA b < UXUXUX",
"UXd O.+XH.+.BXCXCXuXj.H.fXgXFXJXA.~.DXmX@X@.+.uXAXF.z 8 UXUXUXUX",
"UXw c T R T @XNX:X;.R m `.LXKX].m V (.C l R m m M t 0 UXUXUXUXUX",
"UXUXw K R R | $.| R | R n A.+.T R T v c Y U x i 9 UXUXUXUXUXUXUX",
"UXUXUXUXw a f d x x K K K f x K x x d p w w UXUXUXUXUXUXUXUXUXUX",
"UXUXUXUXUXUXUXUXUXUXUXUXUXUXUXUXUXUXUXUXUXUXUXUXUXUXUXUXUXUXUXUX"
};
